HIERARCHY
ROOT reference
{
  OFFSET -65.3212 -1.93545 -120.338
  CHANNELS 6 Xposition Yposition Zposition Zrotation Xrotation Yrotation
  JOINT Hips
  {
    OFFSET 0 78.7191 0
    CHANNELS 6 Xposition Yposition Zposition Zrotation Xrotation Yrotation
    JOINT Chest
    {
      OFFSET 0 8.7983 -4.7612
      CHANNELS 6 Xposition Yposition Zposition Zrotation Xrotation Yrotation
      JOINT Chest2
      {
        OFFSET 0 8.0291 0.4195
        CHANNELS 6 Xposition Yposition Zposition Zrotation Xrotation Yrotation
        JOINT Chest3
        {
          OFFSET 0 9.9351 -2.2114
          CHANNELS 6 Xposition Yposition Zposition Zrotation Xrotation Yrotation
          JOINT Neck
          {
            OFFSET 0 22.3885 -0.4656
            CHANNELS 6 Xposition Yposition Zposition Zrotation Xrotation Yrotation
            JOINT Head
            {
              OFFSET -0.0001 12.643 3.4389
              CHANNELS 6 Xposition Yposition Zposition Zrotation Xrotation Yrotation
              End Site
              {
                OFFSET 0.0001 17.6655 0.5274
              }
            }
          }
          JOINT LeftCollar
          {
            OFFSET 2.2603 21.606 7.4023
            CHANNELS 6 Xposition Yposition Zposition Zrotation Xrotation Yrotation
            JOINT LeftShoulder
            {
              OFFSET 13.5163 -1.1332 -5.0146
              CHANNELS 6 Xposition Yposition Zposition Zrotation Xrotation Yrotation
              JOINT LeftElbow
              {
                OFFSET -0.0995 -28.05 -0.2431
                CHANNELS 6 Xposition Yposition Zposition Zrotation Xrotation Yrotation
                JOINT LeftWrist
                {
                  OFFSET 0.0679 -23.3996 -0.1402
                  CHANNELS 6 Xposition Yposition Zposition Zrotation Xrotation Yrotation
                  JOINT LeftFinger1
                  {
                    OFFSET 0.7932 -9.069 2.5189
                    CHANNELS 6 Xposition Yposition Zposition Zrotation Xrotation Yrotation
                    JOINT LeftFinger11
                    {
                      OFFSET -0.8272 -3.3923 0.5977
                      CHANNELS 6 Xposition Yposition Zposition Zrotation Xrotation Yrotation
                      JOINT LeftFinger12
                      {
                        OFFSET -0.5649 -2.3158 0.4082
                        CHANNELS 6 Xposition Yposition Zposition Zrotation Xrotation Yrotation
                        End Site
                        {
                          OFFSET -0.4919 -1.6479 0.2673
                        }
                      }
                    }
                  }
                  JOINT LeftFinger2
                  {
                    OFFSET 0.9159 -9.2044 0.2193
                    CHANNELS 6 Xposition Yposition Zposition Zrotation Xrotation Yrotation
                    JOINT LeftFinger21
                    {
                      OFFSET 0.0117 -4.1944 -0.0248
                      CHANNELS 6 Xposition Yposition Zposition Zrotation Xrotation Yrotation
                      JOINT LeftFinger22
                      {
                        OFFSET 0.0071 -2.3249 -0.0142
                        CHANNELS 6 Xposition Yposition Zposition Zrotation Xrotation Yrotation
                        End Site
                        {
                          OFFSET -0.1475 -2.0882 0.0028
                        }
                      }
                    }
                  }
                  JOINT LeftFinger3
                  {
                    OFFSET 0.6113 -8.7231 -2.0637
                    CHANNELS 6 Xposition Yposition Zposition Zrotation Xrotation Yrotation
                    JOINT LeftFinger31
                    {
                      OFFSET -0.1927 -3.8059 -0.2383
                      CHANNELS 6 Xposition Yposition Zposition Zrotation Xrotation Yrotation
                      JOINT LeftFinger32
                      {
                        OFFSET -0.1091 -2.1688 -0.1362
                        CHANNELS 6 Xposition Yposition Zposition Zrotation Xrotation Yrotation
                        End Site
                        {
                          OFFSET -0.2358 -1.9176 -0.0906
                        }
                      }
                    }
                  }
                  JOINT LeftFinger4
                  {
                    OFFSET -0.6151 -8.0947 -3.5641
                    CHANNELS 6 Xposition Yposition Zposition Zrotation Xrotation Yrotation
                    JOINT LeftFinger41
                    {
                      OFFSET -0.4882 -2.341 -0.6462
                      CHANNELS 6 Xposition Yposition Zposition Zrotation Xrotation Yrotation
                      JOINT LeftFinger42
                      {
                        OFFSET -0.3575 -1.7167 -0.4742
                        CHANNELS 6 Xposition Yposition Zposition Zrotation Xrotation Yrotation
                        End Site
                        {
                          OFFSET -0.4187 -1.5237 -0.3496
                        }
                      }
                    }
                  }
                  JOINT LeftFinger0
                  {
                    OFFSET -1.42 -1.8761 1.4223
                    CHANNELS 6 Xposition Yposition Zposition Zrotation Xrotation Yrotation
                    JOINT LeftFinger01
                    {
                      OFFSET -1.1471 -3.4929 2.6334
                      CHANNELS 6 Xposition Yposition Zposition Zrotation Xrotation Yrotation
                      JOINT LeftFinger02
                      {
                        OFFSET -0.823 -2.3 1.6571
                        CHANNELS 6 Xposition Yposition Zposition Zrotation Xrotation Yrotation
                        End Site
                        {
                          OFFSET -0.5822 -1.6914 1.1582
                        }
                      }
                    }
                  }
                }
              }
            }
          }
          JOINT RightCollar
          {
            OFFSET -2.2603 21.606 7.4023
            CHANNELS 6 Xposition Yposition Zposition Zrotation Xrotation Yrotation
            JOINT RightShoulder
            {
              OFFSET -13.5187 -1.1334 -5.0155
              CHANNELS 6 Xposition Yposition Zposition Zrotation Xrotation Yrotation
              JOINT RightElbow
              {
                OFFSET 0.0994 -28.0499 -0.2431
                CHANNELS 6 Xposition Yposition Zposition Zrotation Xrotation Yrotation
                JOINT RightWrist
                {
                  OFFSET -0.0679 -23.3996 -0.1402
                  CHANNELS 6 Xposition Yposition Zposition Zrotation Xrotation Yrotation
                  JOINT RightFinger1
                  {
                    OFFSET -0.7932 -9.0691 2.5189
                    CHANNELS 6 Xposition Yposition Zposition Zrotation Xrotation Yrotation
                    JOINT RightFinger11
                    {
                      OFFSET 0.8272 -3.3923 0.5977
                      CHANNELS 6 Xposition Yposition Zposition Zrotation Xrotation Yrotation
                      JOINT RightFinger12
                      {
                        OFFSET 0.565 -2.3158 0.4082
                        CHANNELS 6 Xposition Yposition Zposition Zrotation Xrotation Yrotation
                        End Site
                        {
                          OFFSET 0.4919 -1.6479 0.2673
                        }
                      }
                    }
                  }
                  JOINT RightFinger2
                  {
                    OFFSET -0.916 -9.2044 0.2193
                    CHANNELS 6 Xposition Yposition Zposition Zrotation Xrotation Yrotation
                    JOINT RightFinger21
                    {
                      OFFSET -0.0117 -4.1944 -0.0248
                      CHANNELS 6 Xposition Yposition Zposition Zrotation Xrotation Yrotation
                      JOINT RightFinger22
                      {
                        OFFSET -0.0071 -2.3249 -0.0142
                        CHANNELS 6 Xposition Yposition Zposition Zrotation Xrotation Yrotation
                        End Site
                        {
                          OFFSET 0.1475 -2.0882 0.0028
                        }
                      }
                    }
                  }
                  JOINT RightFinger3
                  {
                    OFFSET -0.6113 -8.7231 -2.0637
                    CHANNELS 6 Xposition Yposition Zposition Zrotation Xrotation Yrotation
                    JOINT RightFinger31
                    {
                      OFFSET 0.1927 -3.8059 -0.2383
                      CHANNELS 6 Xposition Yposition Zposition Zrotation Xrotation Yrotation
                      JOINT RightFinger32
                      {
                        OFFSET 0.1091 -2.1688 -0.1362
                        CHANNELS 6 Xposition Yposition Zposition Zrotation Xrotation Yrotation
                        End Site
                        {
                          OFFSET 0.2358 -1.9176 -0.0906
                        }
                      }
                    }
                  }
                  JOINT RightFinger4
                  {
                    OFFSET 0.6151 -8.0947 -3.564
                    CHANNELS 6 Xposition Yposition Zposition Zrotation Xrotation Yrotation
                    JOINT RightFinger41
                    {
                      OFFSET 0.4882 -2.341 -0.6462
                      CHANNELS 6 Xposition Yposition Zposition Zrotation Xrotation Yrotation
                      JOINT RightFinger42
                      {
                        OFFSET 0.3574 -1.7166 -0.4742
                        CHANNELS 6 Xposition Yposition Zposition Zrotation Xrotation Yrotation
                        End Site
                        {
                          OFFSET 0.4187 -1.5237 -0.3496
                        }
                      }
                    }
                  }
                  JOINT RightFinger0
                  {
                    OFFSET 1.4199 -1.8761 1.4221
                    CHANNELS 6 Xposition Yposition Zposition Zrotation Xrotation Yrotation
                    JOINT RightFinger01
                    {
                      OFFSET 1.1472 -3.4929 2.6336
                      CHANNELS 6 Xposition Yposition Zposition Zrotation Xrotation Yrotation
                      JOINT RightFinger02
                      {
                        OFFSET 0.8229 -2.3 1.6571
                        CHANNELS 6 Xposition Yposition Zposition Zrotation Xrotation Yrotation
                        End Site
                        {
                          OFFSET 0.5822 -1.6914 1.1582
                        }
                      }
                    }
                  }
                }
              }
            }
          }
        }
      }
    }
    JOINT RightHip
    {
      OFFSET -9.412 3.9771 -0.7758
      CHANNELS 6 Xposition Yposition Zposition Zrotation Xrotation Yrotation
      JOINT RightKnee
      {
        OFFSET -0.7531 -40.938 0
        CHANNELS 6 Xposition Yposition Zposition Zrotation Xrotation Yrotation
        JOINT RightAnkle
        {
          OFFSET 0 -40.1986 0
          CHANNELS 6 Xposition Yposition Zposition Zrotation Xrotation Yrotation
          JOINT RightToe
          {
            OFFSET 0 -4.4182 9.239
            CHANNELS 6 Xposition Yposition Zposition Zrotation Xrotation Yrotation
            End Site
            {
              OFFSET 0 0 6.1981
            }
          }
        }
      }
    }
    JOINT LeftHip
    {
      OFFSET 9.4119 3.9773 -0.7758
      CHANNELS 6 Xposition Yposition Zposition Zrotation Xrotation Yrotation
      JOINT LeftKnee
      {
        OFFSET 0.7532 -40.9383 0
        CHANNELS 6 Xposition Yposition Zposition Zrotation Xrotation Yrotation
        JOINT LeftAnkle
        {
          OFFSET 0 -40.1986 0
          CHANNELS 6 Xposition Yposition Zposition Zrotation Xrotation Yrotation
          JOINT LeftToe
          {
            OFFSET 0 -4.4182 9.239
            CHANNELS 6 Xposition Yposition Zposition Zrotation Xrotation Yrotation
            End Site
            {
              OFFSET 0 0 6.1981
            }
          }
        }
      }
    }
  }
}
MOTION
Frames:	4
Frame Time:	0.0333333
-3.82506 47.8603 -12.3936 0 0 -0 4.88498e-015 78.7191 0 165.101 -6.60782 123.396 -8.88179e-016 8.7983 -4.7612 -0.207284 -6.30625 -1.34303 -8.88179e-016 8.0291 0.4195 -0.569501 -12.6058 -2.7343 0 9.9351 -2.2114 -0.569504 -12.6058 -2.73429 0 22.3885 -0.4656 -7.24628 -18.0924 -4.95136 -0.0001 12.643 3.4389 -1.843 -7.36173 -0.234554 2.2603 21.606 7.4023 37.9176 1.80554 -11.4665 13.5163 -1.1332 -5.0146 103.943 -13.6214 70.1592 -0.0995 -28.05 -0.2431 110.956 -40.9178 159.172 0.0679 -23.3996 -0.1402 18.5528 -27.9103 -83.2305 0.7932 -9.069 2.5189 8.75442 -11.0461 -8.77847 -0.8272 -3.3923 0.5977 -0.280161 -3.41817 -1.47841 -0.5649 -2.3158 0.4082 7.06931 -4.34508 0.64686 0.9159 -9.2044 0.2193 29.5977 -10.7145 11.2762 0.0117 -4.1944 -0.0248 -0.592219 -3.40075 0.549489 0.0071 -2.3249 -0.0142 18.3374 -10.7585 3.52795 0.6113 -8.7231 -2.0637 39.8289 -2.31525 8.78367 -0.1927 -3.8059 -0.2383 -0.854298 -5.64646 1.48414 -0.1091 -2.1688 -0.1362 21.7349 -13.5604 5.43777 -0.6151 -8.0947 -3.5641 42.3534 6.11256 3.16725 -0.4882 -2.341 -0.6462 -0.129187 -8.41753 5.58997 -0.3575 -1.7167 -0.4742 18.8942 -11.6594 5.02003 -1.42 -1.8761 1.4223 -3.51571 -22.4099 -12.1406 -1.1471 -3.4929 2.6334 4.49335 5.80534 -1.44694 -0.823 -2.3 1.6571 9.29689 11.5825 -3.41818 -2.2603 21.606 7.4023 -29.8986 -1.07344 4.21828 -13.5187 -1.1334 -5.0155 -98.7158 -26.4657 -48.075 0.0994 -28.0499 -0.2431 -108.708 -28.8038 -174.441 -0.0679 -23.3996 -0.1402 4.67208 -44.7468 122.949 -0.7932 -9.0691 2.5189 -5.57388 -7.25201 9.68665 0.8272 -3.3923 0.5977 -0.0600418 -0.571342 0.677301 0.565 -2.3158 0.4082 -2.53066 -0.866064 0.0217967 -0.916 -9.2044 0.2193 -26.0867 -3.03859 -6.7441 -0.0117 -4.1944 -0.0248 0.107217 -0.532363 -0.0869781 -0.0071 -2.3249 -0.0142 -14.8329 -4.92639 -0.995763 -0.6113 -8.7231 -2.0637 -34.5963 6.1337 -2.73475 0.1927 -3.8059 -0.2383 0.239405 -1.50982 -0.732609 0.1091 -2.1688 -0.1362 -18.7681 -6.87141 -2.19727 0.6151 -8.0947 -3.564 -40.8094 13.4273 4.60191 0.4882 -2.341 -0.6462 -0.476041 -2.38588 -4.08172 0.3574 -1.7166 -0.4742 -14.8882 -5.28798 -1.95502 1.4199 -1.8761 1.4221 -12.1632 -7.63108 11.8426 1.1472 -3.4929 2.6336 -13.1187 23.6626 10.6345 0.8229 -2.3 1.6571 -22.7627 34.3457 19.2671 -9.412 3.9771 -0.7758 -40.5458 -14.3413 -44.0016 -0.7531 -40.938 0 78.5889 75.0544 -71.3543 0 -40.1986 2.84217e-014 2.64716 2.57286 -1.35553 0 -4.4182 9.239 1.21576 8.1723 -0.556497 9.4119 3.9773 -0.7758 50.4374 -19.2281 40.2669 0.7532 -40.9383 -1.42109e-014 -179.873 63.113 176.298 -7.10543e-015 -40.1986 -2.84217e-014 -4.28538 -0.193783 -23.7517 -1.33227e-015 -4.4182 9.239 1.40191 -10.3667 0.12717 
-3.86084 47.8302 -12.4462 0 0 -0 4.88498e-015 78.7191 0 164.964 -6.74151 123.491 -1.77636e-015 8.7983 -4.7612 -0.181861 -6.44703 -1.34687 8.88178e-016 8.0291 0.4195 -0.522323 -12.8879 -2.74073 0 9.9351 -2.2114 -0.522328 -12.8879 -2.74075 0 22.3885 -0.4656 -6.73441 -17.2842 -4.7148 -0.0001 12.643 3.4389 -0.974583 -6.86079 -0.245566 2.2603 21.606 7.4023 37.496 1.72372 -11.8385 13.5163 -1.1332 -5.0146 103.962 -13.8604 69.8606 -0.0995 -28.05 -0.2431 111.029 -41.0636 159.054 0.0679 -23.3996 -0.1402 18.4971 -27.8511 -83.122 0.7932 -9.069 2.5189 8.75443 -11.0461 -8.77846 -0.8272 -3.3923 0.5977 -0.280212 -3.41819 -1.47842 -0.5649 -2.3158 0.4082 7.0693 -4.34506 0.646865 0.9159 -9.2044 0.2193 29.5977 -10.7145 11.2762 0.0117 -4.1944 -0.0248 -0.59226 -3.40074 0.549474 0.0071 -2.3249 -0.0142 18.3373 -10.7584 3.52796 0.6113 -8.7231 -2.0637 39.8289 -2.31525 8.78367 -0.1927 -3.8059 -0.2383 -0.854284 -5.64647 1.48416 -0.1091 -2.1688 -0.1362 21.7349 -13.5605 5.43778 -0.6151 -8.0947 -3.5641 42.3534 6.11256 3.16726 -0.4882 -2.341 -0.6462 -0.129266 -8.41751 5.58998 -0.3575 -1.7167 -0.4742 18.8942 -11.6594 5.02003 -1.42 -1.8761 1.4223 -3.43247 -22.3433 -12.1257 -1.1471 -3.4929 2.6334 3.86174 5.01036 -1.21906 -0.823 -2.3 1.6571 8.41254 10.5566 -3.02518 -2.2603 21.606 7.4023 -29.8921 -1.08243 4.38773 -13.5187 -1.1334 -5.0155 -98.8179 -26.7412 -47.6118 0.0994 -28.0499 -0.2431 -108.698 -28.8664 -174.63 -0.0679 -23.3996 -0.1402 4.954 -44.7108 123.507 -0.7932 -9.0691 2.5189 -5.60434 -7.26846 9.68333 0.8272 -3.3923 0.5977 -0.060038 -0.57135 0.677396 0.565 -2.3158 0.4082 -2.53047 -0.86601 0.0217992 -0.916 -9.2044 0.2193 -26.0868 -3.03859 -6.7441 -0.0117 -4.1944 -0.0248 0.107221 -0.53237 -0.0869624 -0.0071 -2.3249 -0.0142 -14.8329 -4.92639 -0.995752 -0.6113 -8.7231 -2.0637 -34.5963 6.13369 -2.73476 0.1927 -3.8059 -0.2383 0.239441 -1.50981 -0.732589 0.1091 -2.1688 -0.1362 -18.7681 -6.87142 -2.19728 0.6151 -8.0947 -3.564 -40.8094 13.4273 4.6019 0.4882 -2.341 -0.6462 -0.476155 -2.3859 -4.08169 0.3574 -1.7166 -0.4742 -14.8882 -5.28798 -1.95504 1.4199 -1.8761 1.4221 -12.5339 -7.1138 11.9741 1.1472 -3.4929 2.6336 -13.5538 24.2461 11.0141 0.8229 -2.3 1.6571 -23.5886 35.0715 20.0231 -9.412 3.9771 -0.7758 -42.6566 -14.3468 -45.1699 -0.7531 -40.938 1.42109e-014 83.6785 75.2038 -76.4329 0 -40.1986 2.84217e-014 3.02987 2.63792 -0.624808 -3.55271e-015 -4.4182 9.239 1.16596 7.85063 -0.531091 9.4119 3.9773 -0.7758 53.4203 -19.9742 41.9873 0.7532 -40.9383 -7.10543e-015 -179.876 63.9421 176.366 -1.42109e-014 -40.1986 -2.84217e-014 -4.40748 0.361696 -23.4584 8.88179e-016 -4.4182 9.239 1.33099 -9.8528 0.114702 
-3.78241 47.7348 -12.4135 0 0 -0 4.88498e-015 78.7191 0 164.24 -7.31755 123.7 1.77636e-015 8.7983 -4.7612 -0.12994 -6.80865 -1.35654 -2.66454e-015 8.0291 0.4195 -0.428102 -13.6122 -2.75828 1.77636e-015 9.9351 -2.2114 -0.428105 -13.6123 -2.75827 0 22.3885 -0.4656 -6.18014 -15.6214 -4.5173 -0.0001 12.643 3.4389 -0.384395 -6.69561 -0.366197 2.2603 21.606 7.4023 36.7034 1.54678 -12.8819 13.5163 -1.1332 -5.0146 104.181 -13.8797 69.7846 -0.0995 -28.05 -0.2431 111.148 -41.7011 159.017 0.0679 -23.3996 -0.1402 18.371 -27.6462 -83.0703 0.7932 -9.069 2.5189 8.75442 -11.0461 -8.77848 -0.8272 -3.3923 0.5977 -0.280129 -3.4182 -1.47839 -0.5649 -2.3158 0.4082 7.06932 -4.34506 0.646879 0.9159 -9.2044 0.2193 29.5977 -10.7145 11.2762 0.0117 -4.1944 -0.0248 -0.592289 -3.40073 0.549484 0.0071 -2.3249 -0.0142 18.3374 -10.7585 3.52796 0.6113 -8.7231 -2.0637 39.8289 -2.31526 8.78367 -0.1927 -3.8059 -0.2383 -0.85427 -5.64646 1.48416 -0.1091 -2.1688 -0.1362 21.7349 -13.5604 5.43778 -0.6151 -8.0947 -3.5641 42.3534 6.11256 3.16727 -0.4882 -2.341 -0.6462 -0.129167 -8.4175 5.58997 -0.3575 -1.7167 -0.4742 18.8942 -11.6594 5.02002 -1.42 -1.8761 1.4223 -3.36547 -22.2896 -12.114 -1.1471 -3.4929 2.6334 3.41756 4.44686 -1.06342 -0.823 -2.3 1.6571 7.79026 9.82416 -2.75648 -2.2603 21.606 7.4023 -30.0248 -1.08871 4.8501 -13.5187 -1.1334 -5.0155 -98.8842 -26.8863 -47.3918 0.0994 -28.0499 -0.2431 -108.731 -29.4907 -174.94 -0.0679 -23.3996 -0.1402 5.1467 -44.6038 124.034 -0.7932 -9.0691 2.5189 -5.63477 -7.28488 9.67998 0.8272 -3.3923 0.5977 -0.0599961 -0.571292 0.677256 0.565 -2.3158 0.4082 -2.5303 -0.865954 0.0218047 -0.916 -9.2044 0.2193 -26.0867 -3.03859 -6.7441 -0.0117 -4.1944 -0.0248 0.10721 -0.532375 -0.0869641 -0.0071 -2.3249 -0.0142 -14.8329 -4.92639 -0.995751 -0.6113 -8.7231 -2.0637 -34.5963 6.13369 -2.73475 0.1927 -3.8059 -0.2383 0.23937 -1.50983 -0.732601 0.1091 -2.1688 -0.1362 -18.7681 -6.87142 -2.19727 0.6151 -8.0947 -3.564 -40.8094 13.4273 4.6019 0.4882 -2.341 -0.6462 -0.476081 -2.38588 -4.0817 0.3574 -1.7166 -0.4742 -14.8882 -5.28799 -1.95504 1.4199 -1.8761 1.4221 -12.8325 -6.69822 12.0827 1.1472 -3.4929 2.6336 -13.9501 24.7682 11.3609 0.8229 -2.3 1.6571 -24.3521 35.7201 20.7237 -9.412 3.9771 -0.7758 -44.6513 -14.7719 -46.6995 -0.7531 -40.938 -7.10543e-015 85.9114 75.2499 -78.6699 0 -40.1986 2.84217e-014 3.46706 2.767 -0.586636 0 -4.4182 9.239 0.974155 6.60015 -0.435199 9.4119 3.9773 -0.7758 56.3511 -21.5384 44.009 0.7532 -40.9383 1.42109e-014 -179.866 65.3007 176.448 0 -40.1986 -2.84217e-014 -4.67362 1.3138 -22.7432 8.88179e-016 -4.4182 9.239 1.37361 -10.1618 0.122132 
-3.78524 47.6688 -12.4938 0 0 -0 4.88498e-015 78.7191 0 164.137 -7.36328 123.714 1.77636e-015 8.7983 -4.7612 -0.10036 -6.87966 -1.34762 1.77636e-015 8.0291 0.4195 -0.369086 -13.755 -2.73741 0 9.9351 -2.2114 -0.369087 -13.755 -2.7374 4.44089e-016 22.3885 -0.4656 -5.63282 -15.096 -4.29315 -0.0001 12.643 3.4389 0.382639 -6.01959 -0.318674 2.2603 21.606 7.4023 36.3538 1.53765 -12.8312 13.5163 -1.1332 -5.0146 104.066 -13.9908 69.1585 -0.0995 -28.05 -0.2431 111.075 -41.2957 158.946 0.0679 -23.3996 -0.1402 18.3982 -27.6755 -82.9418 0.7932 -9.069 2.5189 8.75443 -11.0461 -8.77844 -0.8272 -3.3923 0.5977 -0.280132 -3.41818 -1.47839 -0.5649 -2.3158 0.4082 7.06932 -4.34507 0.646884 0.9159 -9.2044 0.2193 29.5977 -10.7145 11.2763 0.0117 -4.1944 -0.0248 -0.592262 -3.40074 0.549486 0.0071 -2.3249 -0.0142 18.3373 -10.7585 3.52795 0.6113 -8.7231 -2.0637 39.8289 -2.31526 8.78367 -0.1927 -3.8059 -0.2383 -0.85427 -5.64644 1.48416 -0.1091 -2.1688 -0.1362 21.7349 -13.5605 5.43779 -0.6151 -8.0947 -3.5641 42.3534 6.1126 3.1673 -0.4882 -2.341 -0.6462 -0.12917 -8.41752 5.58996 -0.3575 -1.7167 -0.4742 18.8942 -11.6594 5.02002 -1.42 -1.8761 1.4223 -3.0252 -22.0164 -12.0551 -1.1471 -3.4929 2.6334 3.19429 4.16226 -0.986636 -0.823 -2.3 1.6571 7.47725 9.45246 -2.62384 -2.2603 21.606 7.4023 -30.1245 -1.08897 4.76612 -13.5187 -1.1334 -5.0155 -99.0225 -27.0187 -46.8202 0.0994 -28.0499 -0.2431 -108.694 -29.2067 -175.072 -0.0679 -23.3996 -0.1402 5.16606 -44.6927 124.361 -0.7932 -9.0691 2.5189 -5.66509 -7.30127 9.67667 0.8272 -3.3923 0.5977 -0.0600731 -0.571318 0.677345 0.565 -2.3158 0.4082 -2.53012 -0.865894 0.0217968 -0.916 -9.2044 0.2193 -26.0867 -3.03859 -6.74409 -0.0117 -4.1944 -0.0248 0.107213 -0.532375 -0.0869536 -0.0071 -2.3249 -0.0142 -14.8329 -4.92638 -0.99576 -0.6113 -8.7231 -2.0637 -34.5963 6.13368 -2.73476 0.1927 -3.8059 -0.2383 0.239386 -1.50983 -0.732591 0.1091 -2.1688 -0.1362 -18.7681 -6.87143 -2.19727 0.6151 -8.0947 -3.564 -40.8094 13.4273 4.60189 0.4882 -2.341 -0.6462 -0.47609 -2.38589 -4.08169 0.3574 -1.7166 -0.4742 -14.8882 -5.28798 -1.95503 1.4199 -1.8761 1.4221 -13.221 -6.15905 12.2284 1.1472 -3.4929 2.6336 -14.4537 25.4189 11.8029 0.8229 -2.3 1.6571 -25.3165 36.5098 21.6111 -9.412 3.9771 -0.7758 -46.587 -14.6045 -47.3083 -0.7531 -40.938 0 85.8037 75.2676 -78.6194 7.10543e-015 -40.1986 -2.84217e-014 3.5495 2.72234 -0.608028 7.10543e-015 -4.4182 9.239 0.992029 6.71743 -0.443983 9.4119 3.9773 -0.7758 58.7774 -22.1544 45.2048 0.7532 -40.9383 0 -179.839 67.3682 176.53 0 -40.1986 0 -4.75173 1.98037 -21.969 4.44089e-015 -4.4182 9.239 1.26318 -9.36011 0.103394 
